<?xml version="1.0" standalone="no"?>
<!DOCTYPE svg PUBLIC "-//W3C//DTD SVG 20010904//EN"
 "http://www.w3.org/TR/2001/REC-SVG-20010904/DTD/svg10.dtd">
<svg version="1.0" xmlns="http://www.w3.org/2000/svg"
 width="300.000000pt" height="300.000000pt" viewBox="0 0 300.000000 300.000000"
 preserveAspectRatio="xMidYMid meet">
<metadata>
Created by potrace 1.10, written by Peter Selinger 2001-2011
</metadata>
<g transform="translate(0.000000,300.000000) scale(0.100000,-0.100000)"
fill="#FFFFFF" stroke="FFD700">
<path d="M935 2368 c-33 -18 -73 -59 -84 -87 -9 -21 -28 -32 -94 -55 -181 -64
-393 -184 -484 -275 -76 -76 -143 -232 -208 -484 -33 -127 -34 -164 -6 -181 5
-3 12 -20 16 -37 6 -24 2 -34 -19 -54 -26 -24 -26 -25 -26 -175 0 -147 1 -152
25 -175 13 -14 31 -25 39 -25 8 0 31 -11 51 -24 49 -33 116 -39 450 -39 291 0
493 12 704 43 l123 18 56 -25 c100 -44 317 -112 443 -138 167 -35 403 -44 537
-21 290 51 512 235 512 426 0 67 -26 115 -73 134 -21 9 -127 18 -312 25 -154
6 -301 14 -327 17 l-47 6 -16 56 c-35 126 -115 363 -154 451 -52 122 -90 176
-159 230 -109 83 -438 226 -639 277 -40 10 -73 23 -73 29 -1 16 -35 52 -71 74
-38 23 -129 28 -164 9z m115 -38 c19 -5 55 -30 80 -55 41 -41 59 -50 151 -76
272 -79 560 -218 633 -306 35 -41 96 -167 135 -278 49 -138 57 -162 90 -270
41 -136 61 -155 158 -155 40 0 74 -4 77 -8 2 -4 -41 -8 -97 -7 l-102 0 -90
-58 c-113 -73 -199 -115 -349 -172 -163 -61 -182 -81 -126 -129 34 -28 143
-66 295 -101 55 -13 89 -24 75 -24 -53 -1 -337 81 -490 141 l-75 30 -110 -16
c-60 -9 -144 -19 -185 -22 -41 -3 -86 -7 -100 -10 -18 -3 -21 -2 -10 5 8 5 53
12 100 15 204 16 393 54 424 86 20 20 21 30 20 298 0 247 -3 287 -22 371 -34
147 -88 247 -190 354 -48 49 -114 109 -148 133 l-61 43 -104 -6 c-57 -3 -113
-10 -124 -16 -36 -18 -132 -95 -185 -149 -115 -116 -163 -199 -207 -365 -25
-95 -26 -106 -27 -410 -1 -388 -17 -355 182 -364 120 -4 109 -5 -88 -6 -124
-1 -211 2 -194 6 80 19 83 33 84 362 0 257 7 348 31 444 42 166 142 310 308
440 34 27 64 59 67 72 8 30 -12 53 -46 53 -94 0 -393 -157 -504 -265 -69 -66
-132 -204 -190 -410 -37 -135 -38 -145 -14 -211 18 -50 22 -85 25 -229 2 -103
9 -179 16 -193 17 -35 59 -52 127 -52 34 0 59 -4 56 -8 -2 -4 -40 -5 -84 -1
-61 5 -91 14 -128 35 -27 15 -52 33 -56 39 -4 5 -8 67 -8 136 0 119 1 127 26
160 28 38 27 69 -3 126 -16 31 -16 36 6 130 28 118 93 307 132 386 70 137 240
248 577 377 18 7 52 35 75 63 40 47 83 76 117 77 8 0 31 -4 50 -10z m-190
-184 c0 -2 -33 -28 -73 -59 -299 -229 -374 -435 -365 -1006 l3 -223 -105 4
c-59 2 -111 8 -118 12 -8 5 -12 52 -12 160 0 160 -9 235 -35 290 -14 30 -14
39 10 132 52 200 115 349 176 419 32 37 161 126 239 166 118 60 280 121 280
105z m313 -103 c117 -88 213 -196 258 -288 66 -137 80 -224 86 -541 l6 -272
-50 -10 c-188 -41 -500 -70 -768 -73 l-179 -2 -4 209 c-4 227 8 421 34 524 40
161 131 292 289 415 l83 65 54 -6 c37 -4 63 -2 88 9 19 9 36 16 38 16 2 1 31
-20 65 -46z m1547 -873 c38 -1 49 -4 35 -9 -11 -5 -22 -7 -25 -6 -3 1 -79 6
-170 10 -91 3 -167 9 -170 12 -3 3 58 3 135 -1 77 -3 165 -6 195 -6z m169 -20
c28 -15 44 -65 38 -115 -24 -170 -251 -333 -502 -361 -27 -3 -55 -7 -62 -9 -7
-2 -15 0 -18 5 -4 6 9 10 29 10 48 0 163 25 224 49 222 88 378 304 285 393
-16 15 -39 28 -53 31 -21 3 -19 5 8 6 18 0 41 -3 51 -9z m-329 -30 c146 -6
275 -13 288 -16 18 -4 22 -11 22 -41 0 -54 -33 -114 -98 -176 -111 -105 -250
-155 -458 -164 -200 -9 -374 19 -619 98 -75 24 -95 34 -80 39 11 4 61 20 110
36 115 37 300 128 390 193 67 48 72 50 125 46 30 -3 174 -9 320 -15z m-1630
-310 c-36 -4 -69 -3 -74 2 -6 4 24 7 65 6 l74 -1 -65 -7z"/>
<path d="M934 2286 c-39 -39 -43 -68 -15 -110 44 -66 112 -75 166 -21 45 46
46 81 4 130 -27 30 -37 35 -76 35 -38 0 -50 -5 -79 -34z m135 -32 c27 -34 26
-40 -5 -71 -44 -44 -124 -17 -124 43 0 54 93 74 129 28z"/>
<path d="M1177 2182 c-10 -10 -17 -22 -17 -27 0 -4 65 -71 143 -149 120 -118
149 -152 174 -206 78 -170 85 -207 92 -537 l6 -283 27 -27 27 -27 58 18 c159
50 404 181 444 237 20 29 21 34 9 87 -15 68 -110 354 -143 432 -59 141 -98
194 -183 253 -101 70 -361 184 -519 228 -86 24 -98 24 -118 1z m111 -43 c224
-73 471 -187 550 -255 69 -58 137 -211 233 -522 l47 -154 -66 -43 c-37 -23
-103 -61 -147 -83 -92 -47 -285 -124 -285 -114 0 4 -1 126 -4 272 -3 216 -7
282 -24 355 -25 113 -70 220 -126 299 -51 72 -173 190 -248 240 -29 20 -47 36
-40 36 7 0 57 -14 110 -31z"/>
</g>
</svg>
